<svg width="375" height="397" viewBox="0 0 375 397" fill="none" xmlns="http://www.w3.org/2000/svg">
<g clip-path="url(#clip0_23_2415)">
<rect width="375" height="397" fill="#2567E8"/>
<g clip-path="url(#clip1_23_2415)">
<mask id="mask0_23_2415" style="mask-type:alpha" maskUnits="userSpaceOnUse" x="-321" y="-162" width="1040" height="692">
<g clip-path="url(#paint0_diamond_23_2415_clip_path)" data-figma-skip-parse="true"><g transform="matrix(0 0.376812 -0.876393 0 199 137.369)"><rect x="0" y="0" width="1043.4" height="593.953" fill="url(#paint0_diamond_23_2415)" opacity="1" shape-rendering="crispEdges"/><rect x="0" y="0" width="1043.4" height="593.953" transform="scale(1 -1)" fill="url(#paint0_diamond_23_2415)" opacity="1" shape-rendering="crispEdges"/><rect x="0" y="0" width="1043.4" height="593.953" transform="scale(-1 1)" fill="url(#paint0_diamond_23_2415)" opacity="1" shape-rendering="crispEdges"/><rect x="0" y="0" width="1043.4" height="593.953" transform="scale(-1)" fill="url(#paint0_diamond_23_2415)" opacity="1" shape-rendering="crispEdges"/></g></g><rect x="-321" y="-162" width="1040" height="692" data-figma-gradient-fill="{&#34;type&#34;:&#34;GRADIENT_DIAMOND&#34;,&#34;stops&#34;:[{&#34;color&#34;:{&#34;r&#34;:1.0,&#34;g&#34;:1.0,&#34;b&#34;:1.0,&#34;a&#34;:1.0},&#34;position&#34;:0.0},{&#34;color&#34;:{&#34;r&#34;:0.85098040103912354,&#34;g&#34;:0.85098040103912354,&#34;b&#34;:0.85098040103912354,&#34;a&#34;:0.0},&#34;position&#34;:1.0}],&#34;stopsVar&#34;:[],&#34;transform&#34;:{&#34;m00&#34;:-4.0530038635140653e-13,&#34;m01&#34;:-1752.7867431640625,&#34;m02&#34;:1075.3933105468750,&#34;m10&#34;:753.62414550781250,&#34;m11&#34;:1.6198652662280377e-12,&#34;m12&#34;:-239.44302368164062},&#34;opacity&#34;:1.0,&#34;blendMode&#34;:&#34;NORMAL&#34;,&#34;visible&#34;:true}"/>
</mask>
<g mask="url(#mask0_23_2415)">
<g opacity="0.9">
<circle cx="316.617" cy="273.363" r="0.699952" fill="white" fill-opacity="0.5"/>
<circle cx="72.2971" cy="198.941" r="0.866106" fill="white" fill-opacity="0.3"/>
<circle cx="5.7695" cy="222.393" r="0.639683" fill="white" fill-opacity="0.6"/>
<circle cx="148.496" cy="333.745" r="0.700234" fill="white" fill-opacity="0.4"/>
<circle cx="343.985" cy="295.996" r="0.837128" fill="white" fill-opacity="0.5"/>
<circle cx="1.60862" cy="161.994" r="0.621616" fill="white" fill-opacity="0.6"/>
<circle cx="17.7882" cy="377.67" r="0.818832" fill="white" fill-opacity="0.4"/>
<circle cx="133.096" cy="93.3931" r="0.690477" fill="white" fill-opacity="0.6"/>
<circle cx="12.4038" cy="43.739" r="0.76211" fill="white" fill-opacity="0.5"/>
<circle cx="180.993" cy="285.733" r="0.637879" fill="white" fill-opacity="0.5"/>
<circle cx="259.685" cy="262.013" r="0.596974" fill="white" fill-opacity="0.3"/>
<circle cx="228.999" cy="378.729" r="0.694188" fill="white" fill-opacity="0.5"/>
<circle cx="69.168" cy="36.5704" r="0.69691" fill="white" fill-opacity="0.5"/>
<circle cx="30.1798" cy="374.67" r="0.778728" fill="white" fill-opacity="0.3"/>
<circle cx="236.885" cy="327.416" r="0.882725" fill="white" fill-opacity="0.4"/>
<circle cx="262.168" cy="95.1906" r="0.711451" fill="white" fill-opacity="0.6"/>
<circle cx="4.82303" cy="242.757" r="0.876195" fill="white" fill-opacity="0.5"/>
<circle cx="313.122" cy="386.487" r="0.756572" fill="white" fill-opacity="0.3"/>
<circle cx="122.443" cy="108.196" r="0.693902" fill="white" fill-opacity="0.3"/>
<circle cx="372.827" cy="56.672" r="0.671636" fill="white" fill-opacity="0.5"/>
<circle cx="1.12285" cy="21.8032" r="0.729233" fill="white" fill-opacity="0.4"/>
<circle cx="227.811" cy="89.2495" r="0.689881" fill="white" fill-opacity="0.5"/>
<circle cx="132.578" cy="145.562" r="0.765212" fill="white" fill-opacity="0.4"/>
<circle cx="111.963" cy="384.825" r="0.869681" fill="white" fill-opacity="0.6"/>
<circle cx="205.936" cy="71.5181" r="0.718168" fill="white" fill-opacity="0.6"/>
<circle cx="47.4151" cy="351.651" r="0.84679" fill="white" fill-opacity="0.4"/>
<circle cx="75.6115" cy="307.034" r="0.627863" fill="white" fill-opacity="0.4"/>
<circle cx="77.4745" cy="318.37" r="0.715796" fill="white" fill-opacity="0.3"/>
<circle cx="301.379" cy="247.469" r="0.852779" fill="white" fill-opacity="0.6"/>
<circle cx="158.522" cy="313.579" r="0.661517" fill="white" fill-opacity="0.3"/>
<circle cx="42.6912" cy="342.783" r="0.859218" fill="white" fill-opacity="0.6"/>
<circle cx="186.971" cy="221.267" r="0.696622" fill="white" fill-opacity="0.3"/>
<circle cx="354.043" cy="110.11" r="0.831583" fill="white" fill-opacity="0.4"/>
<circle cx="29.6136" cy="176.384" r="0.80469" fill="white" fill-opacity="0.5"/>
<circle cx="50.9692" cy="228.523" r="0.848888" fill="white" fill-opacity="0.4"/>
<circle cx="230.884" cy="322.601" r="0.803339" fill="white" fill-opacity="0.3"/>
<circle cx="35.466" cy="1.68301" r="0.735984" fill="white" fill-opacity="0.4"/>
<circle cx="358.754" cy="184.673" r="0.806592" fill="white" fill-opacity="0.4"/>
<circle cx="77.5631" cy="81.0759" r="0.804401" fill="white" fill-opacity="0.4"/>
<circle cx="307.897" cy="243.924" r="0.859109" fill="white" fill-opacity="0.5"/>
<circle cx="353.292" cy="19.9694" r="0.671462" fill="white" fill-opacity="0.6"/>
<circle cx="16.0543" cy="33.1817" r="0.859953" fill="white" fill-opacity="0.6"/>
<circle cx="109.965" cy="264.432" r="0.647362" fill="white" fill-opacity="0.3"/>
<circle cx="242.772" cy="50.9322" r="0.85128" fill="white" fill-opacity="0.6"/>
<circle cx="120.095" cy="258.578" r="0.713183" fill="white" fill-opacity="0.5"/>
<circle cx="270.557" cy="216.647" r="0.813803" fill="white" fill-opacity="0.3"/>
<circle cx="228.498" cy="385.332" r="0.785658" fill="white" fill-opacity="0.4"/>
<circle cx="348.076" cy="31.33" r="0.784446" fill="white" fill-opacity="0.3"/>
<circle cx="285.221" cy="68.5186" r="0.678364" fill="white" fill-opacity="0.4"/>
<circle cx="129.655" cy="209.532" r="0.802016" fill="white" fill-opacity="0.4"/>
<circle cx="55.6198" cy="204.757" r="0.763236" fill="white" fill-opacity="0.4"/>
<circle cx="272.369" cy="370.004" r="0.849438" fill="white" fill-opacity="0.5"/>
<circle cx="304.715" cy="378.672" r="0.636609" fill="white" fill-opacity="0.5"/>
<circle cx="244.373" cy="77.9881" r="0.676482" fill="white" fill-opacity="0.6"/>
<circle cx="160.284" cy="9.29093" r="0.648472" fill="white" fill-opacity="0.4"/>
<circle cx="247.356" cy="243.764" r="0.698949" fill="white" fill-opacity="0.6"/>
<circle cx="225.008" cy="306.068" r="0.846621" fill="white" fill-opacity="0.6"/>
<circle cx="7.61861" cy="212.402" r="0.711873" fill="white" fill-opacity="0.5"/>
<circle cx="325.601" cy="56.2131" r="0.804688" fill="white" fill-opacity="0.5"/>
<circle cx="119.592" cy="117.185" r="0.803196" fill="white" fill-opacity="0.5"/>
<circle cx="155.784" cy="50.3719" r="0.883131" fill="white" fill-opacity="0.5"/>
<circle cx="171.61" cy="93.4297" r="0.727048" fill="white" fill-opacity="0.6"/>
<circle cx="113.102" cy="246.848" r="0.82322" fill="white" fill-opacity="0.4"/>
<circle cx="102.969" cy="50.2436" r="0.754837" fill="white" fill-opacity="0.5"/>
<circle cx="163.256" cy="331.337" r="0.660223" fill="white" fill-opacity="0.5"/>
<circle cx="26.463" cy="94.5008" r="0.614002" fill="white" fill-opacity="0.4"/>
<circle cx="196.444" cy="259.746" r="0.69723" fill="white" fill-opacity="0.6"/>
<circle cx="180.561" cy="24.2402" r="0.798039" fill="white" fill-opacity="0.6"/>
<circle cx="96.5512" cy="52.7056" r="0.848304" fill="white" fill-opacity="0.5"/>
<circle cx="196.951" cy="253.741" r="0.613189" fill="white" fill-opacity="0.3"/>
<circle cx="96.4488" cy="306.56" r="0.745889" fill="white" fill-opacity="0.4"/>
<circle cx="53.8999" cy="297.162" r="0.819658" fill="white" fill-opacity="0.6"/>
<circle cx="288.733" cy="50.7188" r="0.637861" fill="white" fill-opacity="0.5"/>
<circle cx="344.967" cy="336.048" r="0.634724" fill="white" fill-opacity="0.6"/>
<circle cx="179.299" cy="57.9041" r="0.719579" fill="white" fill-opacity="0.5"/>
<circle cx="251.413" cy="292.22" r="0.613337" fill="white" fill-opacity="0.4"/>
<circle cx="266.43" cy="130.828" r="0.830232" fill="white" fill-opacity="0.4"/>
<circle cx="57.9969" cy="68.0218" r="0.773981" fill="white" fill-opacity="0.3"/>
<circle cx="77.3734" cy="2.15354" r="0.614725" fill="white" fill-opacity="0.3"/>
<circle cx="120.202" cy="69.2526" r="0.820446" fill="white" fill-opacity="0.5"/>
<circle cx="179.217" cy="323.62" r="0.638211" fill="white" fill-opacity="0.5"/>
<circle cx="196.505" cy="314.268" r="0.758062" fill="white" fill-opacity="0.4"/>
<circle cx="52.076" cy="102.946" r="0.771508" fill="white" fill-opacity="0.3"/>
<circle cx="245.023" cy="154.412" r="0.734636" fill="white" fill-opacity="0.5"/>
<circle cx="214.834" cy="327.863" r="0.737588" fill="white" fill-opacity="0.4"/>
<circle cx="125.993" cy="94.579" r="0.692114" fill="white" fill-opacity="0.5"/>
</g>
<g opacity="0.1">
<g clip-path="url(#clip2_23_2415)">
<path d="M19.9103 -84.1694V778.817" stroke="white" stroke-width="0.654481"/>
<path d="M61.7971 -84.1694V778.817" stroke="white" stroke-width="0.654481"/>
<path d="M103.684 -84.1694V778.817" stroke="white" stroke-width="0.654481"/>
<path d="M145.571 -84.1694V778.817" stroke="white" stroke-width="0.654481"/>
<path d="M187.457 -84.1694V778.817" stroke="white" stroke-width="0.654481"/>
<path d="M229.344 -84.1694V778.817" stroke="white" stroke-width="0.654481"/>
<path d="M271.231 -84.1694V778.817" stroke="white" stroke-width="0.654481"/>
<path d="M313.118 -84.1694V778.817" stroke="white" stroke-width="0.654481"/>
<path d="M355.005 -84.1694V778.817" stroke="white" stroke-width="0.654481"/>
</g>
<g clip-path="url(#clip3_23_2415)">
<path d="M-315.184 41.4908L933 41.4908" stroke="white" stroke-width="0.654481"/>
<path d="M-315.184 83.3776L933 83.3776" stroke="white" stroke-width="0.654481"/>
<path d="M-315.184 125.264L933 125.264" stroke="white" stroke-width="0.654481"/>
<path d="M-315.184 167.151L933 167.151" stroke="white" stroke-width="0.654481"/>
<path d="M-315.184 209.038L933 209.038" stroke="white" stroke-width="0.654481"/>
<path d="M-315.184 250.925L933 250.925" stroke="white" stroke-width="0.654481"/>
<path d="M-315.184 292.811L933 292.811" stroke="white" stroke-width="0.654481"/>
<path d="M-315.184 334.698L933 334.698" stroke="white" stroke-width="0.654481"/>
<path d="M-315.184 376.585L933 376.585" stroke="white" stroke-width="0.654481"/>
</g>
</g>
</g>
</g>
<path d="M187.5 96C195.232 96 201.5 89.7322 201.5 82V72.2C201.5 71.0861 201.058 70.0178 200.27 69.2302C199.482 68.4425 198.414 68 197.3 68H188.2V74.1418C188.2 75.5432 188.285 76.995 189.02 78.1878C189.547 79.0426 190.251 79.7743 191.084 80.3332C191.918 80.892 192.863 81.265 193.853 81.4267L194.121 81.4701C194.232 81.5079 194.328 81.5793 194.396 81.6743C194.464 81.7693 194.5 81.8832 194.5 82C194.5 82.1168 194.464 82.2307 194.396 82.3257C194.328 82.4207 194.232 82.4921 194.121 82.5299L193.853 82.5733C192.406 82.8098 191.069 83.4949 190.032 84.532C188.995 85.5691 188.31 86.9057 188.073 88.3532L188.03 88.6213C187.992 88.7318 187.921 88.8278 187.826 88.8957C187.731 88.9636 187.617 89.0002 187.5 89.0002C187.383 89.0002 187.269 88.9636 187.174 88.8957C187.079 88.8278 187.008 88.7318 186.97 88.6213L186.927 88.3532C186.765 87.3625 186.392 86.4182 185.833 85.5844C185.274 84.7505 184.543 84.0466 183.688 83.5204C182.495 82.7854 181.043 82.7 179.642 82.7H173.517C173.883 90.1067 180.003 96 187.5 96Z" fill="white"/>
<path d="M173.5 81.3001H179.642C181.043 81.3001 182.495 81.2147 183.688 80.4797C184.62 79.9052 185.405 79.1203 185.98 78.1879C186.715 76.9951 186.8 75.5433 186.8 74.1419V68.0001H177.7C176.586 68.0001 175.518 68.4426 174.73 69.2302C173.942 70.0179 173.5 71.0862 173.5 72.2001V81.3001Z" fill="white"/>
<path d="M99.3253 147.768C101.8 147.768 103.037 146.851 103.037 145.016C103.037 144.269 102.845 143.683 102.461 143.256C102.099 142.829 101.416 142.456 100.413 142.136L97.7893 141.272C94.6533 140.248 93.0853 138.189 93.0853 135.096C93.0853 133.304 93.6399 131.832 94.7493 130.68C95.8799 129.507 97.6399 128.92 100.029 128.92C101.032 128.92 102.024 129.037 103.005 129.272C103.987 129.485 105.032 129.837 106.141 130.328L104.957 133.624C103.933 133.219 103.059 132.931 102.333 132.76C101.629 132.568 100.904 132.472 100.157 132.472C99.1759 132.472 98.3973 132.653 97.8213 133.016C97.2666 133.357 96.9893 133.987 96.9893 134.904C96.9893 135.587 97.1813 136.152 97.5653 136.6C97.9706 137.027 98.6319 137.389 99.5493 137.688L102.173 138.552C103.752 139.085 104.936 139.864 105.725 140.888C106.536 141.891 106.941 143.224 106.941 144.888C106.941 146.808 106.333 148.365 105.117 149.56C103.901 150.733 101.992 151.32 99.3893 151.32C98.3653 151.32 97.2986 151.203 96.1893 150.968C95.1013 150.712 93.9066 150.285 92.6053 149.688L93.7893 146.392C94.9839 146.904 95.9973 147.267 96.8293 147.48C97.6826 147.672 98.5146 147.768 99.3253 147.768ZM113.808 131.704H109.936V127.896H113.808V131.704ZM113.712 151H110.032V134.776H113.712V151ZM131.614 152.632C131.614 154.36 130.931 155.704 129.566 156.664C128.222 157.645 126.344 158.136 123.934 158.136C122.803 158.136 121.608 158.008 120.35 157.752C119.091 157.496 117.928 157.069 116.862 156.472L117.918 153.56C118.942 154.072 119.955 154.435 120.958 154.648C121.96 154.883 122.942 155 123.902 155C125.246 155 126.27 154.819 126.974 154.456C127.678 154.093 128.03 153.613 128.03 153.016C128.03 152.099 127.486 151.64 126.398 151.64H122.558C121.512 151.64 120.67 151.469 120.03 151.128C119.39 150.787 118.92 150.349 118.622 149.816C118.323 149.261 118.174 148.685 118.174 148.088C118.174 147.469 118.302 146.893 118.558 146.36C118.835 145.805 119.208 145.293 119.678 144.824C118.91 144.355 118.291 143.725 117.822 142.936C117.374 142.147 117.15 141.197 117.15 140.088C117.15 138.829 117.416 137.784 117.95 136.952C118.483 136.12 119.208 135.501 120.126 135.096C121.064 134.669 122.099 134.456 123.23 134.456H123.774C124.2 134.456 124.616 134.488 125.022 134.552C125.427 134.595 125.811 134.669 126.174 134.776H131.966V137.912L128.766 137.4C129.086 137.741 129.331 138.168 129.502 138.68C129.694 139.171 129.79 139.779 129.79 140.504C129.79 141.592 129.512 142.531 128.958 143.32C128.424 144.088 127.699 144.685 126.782 145.112C125.886 145.517 124.883 145.72 123.774 145.72H123.23C122.803 145.72 122.398 145.688 122.014 145.624C121.779 145.88 121.608 146.147 121.502 146.424C121.395 146.68 121.342 146.925 121.342 147.16C121.342 147.907 121.822 148.28 122.782 148.28H126.686C128.158 148.28 129.342 148.664 130.238 149.432C131.155 150.179 131.614 151.245 131.614 152.632ZM123.774 142.712C124.435 142.712 125.011 142.488 125.502 142.04C126.014 141.592 126.27 140.941 126.27 140.088C126.27 139.235 126.014 138.584 125.502 138.136C125.011 137.688 124.435 137.464 123.774 137.464H123.23C122.547 137.464 121.95 137.688 121.438 138.136C120.947 138.584 120.702 139.235 120.702 140.088C120.702 140.941 120.947 141.592 121.438 142.04C121.95 142.488 122.547 142.712 123.23 142.712H123.774ZM142.438 137.88C141.904 137.88 141.296 138.008 140.614 138.264C139.931 138.52 139.12 139.021 138.182 139.768V151H134.502V134.776H137.99V136.952C138.992 136.077 139.942 135.448 140.838 135.064C141.734 134.659 142.64 134.456 143.558 134.456C145.115 134.456 146.299 134.957 147.11 135.96C147.92 136.941 148.326 138.328 148.326 140.12V151H144.646V140.568C144.646 138.776 143.91 137.88 142.438 137.88ZM162.092 131.704H158.22V127.896H162.092V131.704ZM161.996 151H158.316V134.776H161.996V151ZM174.362 137.88C173.828 137.88 173.22 138.008 172.538 138.264C171.855 138.52 171.044 139.021 170.106 139.768V151H166.426V134.776H169.914V136.952C170.916 136.077 171.866 135.448 172.762 135.064C173.658 134.659 174.564 134.456 175.482 134.456C177.039 134.456 178.223 134.957 179.034 135.96C179.844 136.941 180.25 138.328 180.25 140.12V151H176.57V140.568C176.57 138.776 175.834 137.88 174.362 137.88ZM199.999 150.456C199.445 150.712 198.805 150.915 198.079 151.064C197.354 151.235 196.618 151.32 195.871 151.32C194.634 151.32 193.642 151.064 192.895 150.552C192.149 150.04 191.605 149.325 191.263 148.408C190.943 147.491 190.783 146.445 190.783 145.272V137.976H188.159V134.776H190.783V130.552H194.463V134.776H199.519V137.976H194.463V145.272C194.463 146.253 194.645 146.936 195.007 147.32C195.391 147.683 195.935 147.864 196.639 147.864C196.981 147.864 197.343 147.832 197.727 147.768C198.133 147.683 198.581 147.544 199.071 147.352L199.999 150.456ZM215.598 141.912V143.832C215.598 146.093 214.979 147.907 213.742 149.272C212.505 150.637 210.755 151.32 208.494 151.32C206.233 151.32 204.483 150.637 203.246 149.272C202.009 147.907 201.39 146.093 201.39 143.832V141.912C201.39 139.651 201.998 137.848 203.214 136.504C204.451 135.139 206.211 134.456 208.494 134.456C210.777 134.456 212.526 135.139 213.742 136.504C214.979 137.848 215.598 139.651 215.598 141.912ZM211.822 141.912C211.822 140.611 211.534 139.597 210.958 138.872C210.382 138.125 209.561 137.752 208.494 137.752C207.427 137.752 206.606 138.125 206.03 138.872C205.454 139.597 205.166 140.611 205.166 141.912V143.832C205.166 145.133 205.454 146.157 206.03 146.904C206.606 147.651 207.427 148.024 208.494 148.024C209.561 148.024 210.382 147.651 210.958 146.904C211.534 146.157 211.822 145.133 211.822 143.832V141.912ZM231.411 152.6C230.707 154.563 229.811 155.971 228.723 156.824C227.635 157.699 226.141 158.136 224.243 158.136V154.456C225.373 154.413 226.259 154.157 226.899 153.688C227.56 153.24 228.051 152.611 228.371 151.8L228.659 151.064L222.867 134.776H226.515L229.299 142.872L230.387 146.296L231.443 142.872L234.099 134.776H237.747L231.411 152.6ZM253.147 141.912V143.832C253.147 146.093 252.528 147.907 251.291 149.272C250.053 150.637 248.304 151.32 246.043 151.32C243.781 151.32 242.032 150.637 240.795 149.272C239.557 147.907 238.939 146.093 238.939 143.832V141.912C238.939 139.651 239.547 137.848 240.763 136.504C242 135.139 243.76 134.456 246.043 134.456C248.325 134.456 250.075 135.139 251.291 136.504C252.528 137.848 253.147 139.651 253.147 141.912ZM249.371 141.912C249.371 140.611 249.083 139.597 248.507 138.872C247.931 138.125 247.109 137.752 246.043 137.752C244.976 137.752 244.155 138.125 243.579 138.872C243.003 139.597 242.715 140.611 242.715 141.912V143.832C242.715 145.133 243.003 146.157 243.579 146.904C244.155 147.651 244.976 148.024 246.043 148.024C247.109 148.024 247.931 147.651 248.507 146.904C249.083 146.157 249.371 145.133 249.371 143.832V141.912ZM266.297 151V148.856C265.316 149.709 264.398 150.339 263.545 150.744C262.692 151.128 261.828 151.32 260.953 151.32C259.502 151.32 258.382 150.829 257.593 149.848C256.804 148.845 256.409 147.448 256.409 145.656V134.776H260.089V145.208C260.089 147 260.75 147.896 262.073 147.896C262.606 147.896 263.182 147.768 263.801 147.512C264.441 147.256 265.209 146.765 266.105 146.04V134.776H269.785V151H266.297ZM283.364 138.136C282.361 138.136 281.401 138.296 280.484 138.616C279.588 138.915 278.724 139.405 277.892 140.088V151H274.212V134.776H277.7V137.272C278.788 136.248 279.758 135.523 280.612 135.096C281.465 134.669 282.382 134.456 283.364 134.456V138.136ZM146.621 189L145.277 184.744H137.821L136.477 189H132.669L139.933 167.24H143.325L150.621 189H146.621ZM139.901 178.088L138.909 181.224H144.157L143.165 178.088L141.565 172.584L139.901 178.088ZM155.796 179.944V181.832C155.796 183.197 156.041 184.221 156.532 184.904C157.023 185.587 157.812 185.928 158.9 185.928C159.433 185.928 160.031 185.864 160.692 185.736C161.375 185.587 162.111 185.363 162.9 185.064L163.956 188.168C162.996 188.552 162.089 188.84 161.236 189.032C160.383 189.224 159.54 189.32 158.708 189.32C156.575 189.32 154.943 188.637 153.812 187.272C152.681 185.907 152.116 184.093 152.116 181.832V179.944C152.116 177.661 152.681 175.848 153.812 174.504C154.943 173.139 156.575 172.456 158.708 172.456C159.519 172.456 160.34 172.552 161.172 172.744C162.004 172.936 162.879 173.213 163.796 173.576L162.74 176.744C161.204 176.147 159.924 175.848 158.9 175.848C157.812 175.848 157.023 176.189 156.532 176.872C156.041 177.533 155.796 178.557 155.796 179.944ZM169.5 179.944V181.832C169.5 183.197 169.745 184.221 170.236 184.904C170.726 185.587 171.516 185.928 172.604 185.928C173.137 185.928 173.734 185.864 174.396 185.736C175.078 185.587 175.814 185.363 176.604 185.064L177.66 188.168C176.7 188.552 175.793 188.84 174.94 189.032C174.086 189.224 173.244 189.32 172.412 189.32C170.278 189.32 168.646 188.637 167.516 187.272C166.385 185.907 165.82 184.093 165.82 181.832V179.944C165.82 177.661 166.385 175.848 167.516 174.504C168.646 173.139 170.278 172.456 172.412 172.456C173.222 172.456 174.044 172.552 174.876 172.744C175.708 172.936 176.582 173.213 177.5 173.576L176.444 176.744C174.908 176.147 173.628 175.848 172.604 175.848C171.516 175.848 170.726 176.189 170.236 176.872C169.745 177.533 169.5 178.557 169.5 179.944ZM193.667 179.912V181.832C193.667 184.093 193.049 185.907 191.811 187.272C190.574 188.637 188.825 189.32 186.563 189.32C184.302 189.32 182.553 188.637 181.315 187.272C180.078 185.907 179.459 184.093 179.459 181.832V179.912C179.459 177.651 180.067 175.848 181.283 174.504C182.521 173.139 184.281 172.456 186.563 172.456C188.846 172.456 190.595 173.139 191.811 174.504C193.049 175.848 193.667 177.651 193.667 179.912ZM189.891 179.912C189.891 178.611 189.603 177.597 189.027 176.872C188.451 176.125 187.63 175.752 186.563 175.752C185.497 175.752 184.675 176.125 184.099 176.872C183.523 177.597 183.235 178.611 183.235 179.912V181.832C183.235 183.133 183.523 184.157 184.099 184.904C184.675 185.651 185.497 186.024 186.563 186.024C187.63 186.024 188.451 185.651 189.027 184.904C189.603 184.157 189.891 183.133 189.891 181.832V179.912ZM206.818 189V186.856C205.836 187.709 204.919 188.339 204.066 188.744C203.212 189.128 202.348 189.32 201.474 189.32C200.023 189.32 198.903 188.829 198.114 187.848C197.324 186.845 196.93 185.448 196.93 183.656V172.776H200.61V183.208C200.61 185 201.271 185.896 202.594 185.896C203.127 185.896 203.703 185.768 204.322 185.512C204.962 185.256 205.73 184.765 206.626 184.04V172.776H210.306V189H206.818ZM222.668 175.88C222.135 175.88 221.527 176.008 220.844 176.264C220.162 176.52 219.351 177.021 218.412 177.768V189H214.732V172.776H218.22V174.952C219.223 174.077 220.172 173.448 221.068 173.064C221.964 172.659 222.871 172.456 223.788 172.456C225.346 172.456 226.53 172.957 227.34 173.96C228.151 174.941 228.556 176.328 228.556 178.12V189H224.876V178.568C224.876 176.776 224.14 175.88 222.668 175.88ZM242.54 188.456C241.985 188.712 241.345 188.915 240.62 189.064C239.895 189.235 239.159 189.32 238.412 189.32C237.175 189.32 236.183 189.064 235.436 188.552C234.689 188.04 234.145 187.325 233.804 186.408C233.484 185.491 233.324 184.445 233.324 183.272V175.976H230.7V172.776H233.324V168.552H237.004V172.776H242.06V175.976H237.004V183.272C237.004 184.253 237.185 184.936 237.548 185.32C237.932 185.683 238.476 185.864 239.18 185.864C239.521 185.864 239.884 185.832 240.268 185.768C240.673 185.683 241.121 185.544 241.612 185.352L242.54 188.456Z" fill="#EEEEEE"/>
<path d="M77.9588 221V212.273H83.4304V213.406H79.2756V216.065H83.1449V217.195H79.2756V219.866H83.4815V221H77.9588ZM86.2412 217.114V221H84.967V214.455H86.19V215.52H86.271C86.4215 215.173 86.6573 214.895 86.9784 214.685C87.3022 214.474 87.7099 214.369 88.2014 214.369C88.6474 214.369 89.038 214.463 89.3733 214.651C89.7085 214.835 89.9684 215.111 90.1531 215.477C90.3377 215.844 90.4301 216.297 90.4301 216.837V221H89.1559V216.99C89.1559 216.516 89.0323 216.145 88.7852 215.878C88.538 215.608 88.1985 215.473 87.7667 215.473C87.4713 215.473 87.2085 215.537 86.9784 215.665C86.7511 215.793 86.5707 215.98 86.4372 216.227C86.3065 216.472 86.2412 216.767 86.2412 217.114ZM95.0743 214.455V215.477H91.499V214.455H95.0743ZM92.4578 212.886H93.7319V219.078C93.7319 219.325 93.7689 219.511 93.8427 219.636C93.9166 219.759 94.0118 219.842 94.1283 219.888C94.2476 219.93 94.3768 219.952 94.516 219.952C94.6183 219.952 94.7078 219.945 94.7845 219.93C94.8612 219.916 94.9209 219.905 94.9635 219.896L95.1936 220.949C95.1197 220.977 95.0146 221.006 94.8783 221.034C94.7419 221.065 94.5714 221.082 94.3669 221.085C94.0317 221.091 93.7192 221.031 93.4294 220.906C93.1396 220.781 92.9052 220.588 92.7263 220.327C92.5473 220.065 92.4578 219.737 92.4578 219.342V212.886ZM99.1144 221.132C98.4695 221.132 97.9141 220.994 97.4482 220.719C96.9852 220.44 96.6272 220.05 96.3744 219.547C96.1244 219.041 95.9994 218.449 95.9994 217.77C95.9994 217.099 96.1244 216.509 96.3744 215.997C96.6272 215.486 96.9795 215.087 97.4312 214.8C97.8857 214.513 98.417 214.369 99.0249 214.369C99.3943 214.369 99.7522 214.43 100.099 214.553C100.445 214.675 100.756 214.866 101.032 215.128C101.308 215.389 101.525 215.729 101.684 216.146C101.843 216.561 101.923 217.065 101.923 217.659V218.111H96.7195V217.156H100.674C100.674 216.821 100.606 216.524 100.47 216.266C100.333 216.004 100.141 215.798 99.8943 215.648C99.6499 215.497 99.363 215.422 99.0335 215.422C98.6755 215.422 98.363 215.51 98.096 215.686C97.8318 215.859 97.6272 216.087 97.4823 216.368C97.3403 216.646 97.2693 216.949 97.2693 217.276V218.021C97.2693 218.459 97.346 218.831 97.4994 219.138C97.6556 219.445 97.873 219.679 98.1514 219.841C98.4298 220 98.7551 220.08 99.1272 220.08C99.3687 220.08 99.5889 220.045 99.7877 219.977C99.9866 219.906 100.158 219.801 100.303 219.662C100.448 219.523 100.559 219.351 100.636 219.146L101.842 219.364C101.745 219.719 101.572 220.03 101.322 220.297C101.075 220.561 100.764 220.767 100.389 220.915C100.016 221.06 99.5917 221.132 99.1144 221.132ZM103.216 221V214.455H104.448V215.494H104.516C104.635 215.142 104.846 214.865 105.147 214.663C105.451 214.459 105.795 214.357 106.178 214.357C106.258 214.357 106.351 214.359 106.459 214.365C106.57 214.371 106.657 214.378 106.719 214.386V215.605C106.668 215.591 106.577 215.575 106.446 215.558C106.316 215.538 106.185 215.528 106.054 215.528C105.753 215.528 105.485 215.592 105.249 215.72C105.016 215.845 104.831 216.02 104.695 216.244C104.559 216.466 104.491 216.719 104.491 217.003V221H103.216ZM111.563 223.455C111.373 223.455 111.199 223.439 111.043 223.408C110.887 223.379 110.77 223.348 110.694 223.314L111.001 222.27C111.233 222.332 111.441 222.359 111.623 222.351C111.805 222.342 111.965 222.274 112.104 222.146C112.246 222.018 112.371 221.81 112.479 221.52L112.637 221.085L110.242 214.455H111.606L113.263 219.534H113.331L114.989 214.455H116.357L113.66 221.874C113.535 222.214 113.376 222.503 113.182 222.739C112.989 222.977 112.759 223.156 112.492 223.276C112.225 223.395 111.915 223.455 111.563 223.455ZM119.969 221.132C119.355 221.132 118.82 220.991 118.362 220.71C117.905 220.429 117.55 220.036 117.297 219.53C117.044 219.024 116.918 218.433 116.918 217.757C116.918 217.078 117.044 216.484 117.297 215.976C117.55 215.467 117.905 215.072 118.362 214.791C118.82 214.51 119.355 214.369 119.969 214.369C120.583 214.369 121.118 214.51 121.575 214.791C122.033 215.072 122.388 215.467 122.641 215.976C122.894 216.484 123.02 217.078 123.02 217.757C123.02 218.433 122.894 219.024 122.641 219.53C122.388 220.036 122.033 220.429 121.575 220.71C121.118 220.991 120.583 221.132 119.969 221.132ZM119.973 220.062C120.371 220.062 120.7 219.957 120.962 219.747C121.223 219.537 121.416 219.257 121.541 218.908C121.669 218.558 121.733 218.173 121.733 217.753C121.733 217.335 121.669 216.952 121.541 216.602C121.416 216.25 121.223 215.967 120.962 215.754C120.7 215.541 120.371 215.435 119.973 215.435C119.573 215.435 119.24 215.541 118.976 215.754C118.715 215.967 118.52 216.25 118.392 216.602C118.267 216.952 118.205 217.335 118.205 217.753C118.205 218.173 118.267 218.558 118.392 218.908C118.52 219.257 118.715 219.537 118.976 219.747C119.24 219.957 119.573 220.062 119.973 220.062ZM128.469 218.286V214.455H129.747V221H128.494V219.866H128.426C128.275 220.216 128.034 220.507 127.702 220.74C127.372 220.97 126.962 221.085 126.47 221.085C126.05 221.085 125.677 220.993 125.354 220.808C125.033 220.621 124.78 220.344 124.595 219.977C124.413 219.611 124.322 219.158 124.322 218.618V214.455H125.596V218.464C125.596 218.911 125.72 219.266 125.967 219.53C126.214 219.794 126.535 219.926 126.93 219.926C127.169 219.926 127.406 219.866 127.642 219.747C127.881 219.628 128.078 219.447 128.234 219.206C128.393 218.964 128.471 218.658 128.469 218.286ZM131.339 221V214.455H132.571V215.494H132.639C132.758 215.142 132.968 214.865 133.269 214.663C133.573 214.459 133.917 214.357 134.301 214.357C134.38 214.357 134.474 214.359 134.582 214.365C134.693 214.371 134.779 214.378 134.842 214.386V215.605C134.791 215.591 134.7 215.575 134.569 215.558C134.438 215.538 134.308 215.528 134.177 215.528C133.876 215.528 133.607 215.592 133.372 215.72C133.139 215.845 132.954 216.02 132.818 216.244C132.681 216.466 132.613 216.719 132.613 217.003V221H131.339ZM141.701 221.132C141.056 221.132 140.501 220.994 140.035 220.719C139.572 220.44 139.214 220.05 138.961 219.547C138.711 219.041 138.586 218.449 138.586 217.77C138.586 217.099 138.711 216.509 138.961 215.997C139.214 215.486 139.566 215.087 140.018 214.8C140.473 214.513 141.004 214.369 141.612 214.369C141.981 214.369 142.339 214.43 142.686 214.553C143.032 214.675 143.343 214.866 143.619 215.128C143.894 215.389 144.112 215.729 144.271 216.146C144.43 216.561 144.51 217.065 144.51 217.659V218.111H139.306V217.156H143.261C143.261 216.821 143.193 216.524 143.056 216.266C142.92 216.004 142.728 215.798 142.481 215.648C142.237 215.497 141.95 215.422 141.62 215.422C141.262 215.422 140.95 215.51 140.683 215.686C140.419 215.859 140.214 216.087 140.069 216.368C139.927 216.646 139.856 216.949 139.856 217.276V218.021C139.856 218.459 139.933 218.831 140.086 219.138C140.243 219.445 140.46 219.679 140.738 219.841C141.017 220 141.342 220.08 141.714 220.08C141.956 220.08 142.176 220.045 142.375 219.977C142.573 219.906 142.745 219.801 142.89 219.662C143.035 219.523 143.146 219.351 143.223 219.146L144.429 219.364C144.332 219.719 144.159 220.03 143.909 220.297C143.662 220.561 143.35 220.767 142.975 220.915C142.603 221.06 142.179 221.132 141.701 221.132ZM145.803 221V214.455H147.026V215.52H147.107C147.244 215.159 147.467 214.878 147.776 214.676C148.086 214.472 148.457 214.369 148.888 214.369C149.326 214.369 149.692 214.472 149.988 214.676C150.286 214.881 150.506 215.162 150.648 215.52H150.717C150.873 215.17 151.121 214.892 151.462 214.685C151.803 214.474 152.21 214.369 152.681 214.369C153.275 214.369 153.759 214.555 154.134 214.928C154.512 215.3 154.701 215.861 154.701 216.611V221H153.427V216.73C153.427 216.287 153.306 215.966 153.065 215.767C152.823 215.568 152.535 215.469 152.2 215.469C151.785 215.469 151.462 215.597 151.232 215.852C151.002 216.105 150.887 216.43 150.887 216.828V221H149.617V216.649C149.617 216.294 149.506 216.009 149.285 215.793C149.063 215.577 148.775 215.469 148.42 215.469C148.178 215.469 147.955 215.533 147.751 215.661C147.549 215.786 147.386 215.96 147.261 216.185C147.138 216.409 147.077 216.669 147.077 216.964V221H145.803ZM158.194 221.145C157.779 221.145 157.404 221.068 157.069 220.915C156.733 220.759 156.468 220.533 156.272 220.237C156.078 219.942 155.982 219.58 155.982 219.151C155.982 218.781 156.053 218.477 156.195 218.239C156.337 218 156.529 217.811 156.77 217.672C157.012 217.533 157.282 217.428 157.58 217.357C157.878 217.286 158.182 217.232 158.492 217.195C158.884 217.149 159.202 217.112 159.446 217.084C159.691 217.053 159.868 217.003 159.979 216.935C160.09 216.866 160.145 216.756 160.145 216.602V216.572C160.145 216.2 160.04 215.912 159.83 215.707C159.623 215.503 159.313 215.401 158.901 215.401C158.472 215.401 158.134 215.496 157.887 215.686C157.642 215.874 157.473 216.082 157.38 216.312L156.182 216.04C156.324 215.642 156.532 215.321 156.804 215.077C157.08 214.83 157.397 214.651 157.755 214.54C158.113 214.426 158.489 214.369 158.884 214.369C159.145 214.369 159.422 214.401 159.715 214.463C160.01 214.523 160.286 214.634 160.542 214.795C160.8 214.957 161.012 215.189 161.177 215.49C161.341 215.788 161.424 216.176 161.424 216.653V221H160.179V220.105H160.128C160.046 220.27 159.922 220.432 159.757 220.591C159.593 220.75 159.381 220.882 159.123 220.987C158.864 221.092 158.554 221.145 158.194 221.145ZM158.471 220.122C158.823 220.122 159.124 220.053 159.374 219.913C159.627 219.774 159.819 219.592 159.949 219.368C160.083 219.141 160.15 218.898 160.15 218.639V217.795C160.104 217.841 160.016 217.884 159.885 217.923C159.757 217.96 159.611 217.993 159.446 218.021C159.282 218.047 159.121 218.071 158.965 218.094C158.809 218.114 158.678 218.131 158.573 218.145C158.326 218.176 158.1 218.229 157.895 218.303C157.694 218.376 157.532 218.483 157.409 218.622C157.29 218.759 157.23 218.94 157.23 219.168C157.23 219.483 157.347 219.722 157.58 219.884C157.813 220.043 158.11 220.122 158.471 220.122ZM163.001 221V214.455H164.275V221H163.001ZM163.644 213.445C163.423 213.445 163.232 213.371 163.073 213.223C162.917 213.072 162.839 212.893 162.839 212.686C162.839 212.476 162.917 212.297 163.073 212.149C163.232 211.999 163.423 211.923 163.644 211.923C163.866 211.923 164.055 211.999 164.211 212.149C164.37 212.297 164.45 212.476 164.45 212.686C164.45 212.893 164.37 213.072 164.211 213.223C164.055 213.371 163.866 213.445 163.644 213.445ZM167.143 212.273V221H165.869V212.273H167.143ZM173.698 221.145C173.283 221.145 172.908 221.068 172.573 220.915C172.238 220.759 171.972 220.533 171.776 220.237C171.583 219.942 171.486 219.58 171.486 219.151C171.486 218.781 171.557 218.477 171.699 218.239C171.841 218 172.033 217.811 172.275 217.672C172.516 217.533 172.786 217.428 173.084 217.357C173.383 217.286 173.687 217.232 173.996 217.195C174.388 217.149 174.706 217.112 174.951 217.084C175.195 217.053 175.373 217.003 175.483 216.935C175.594 216.866 175.65 216.756 175.65 216.602V216.572C175.65 216.2 175.545 215.912 175.334 215.707C175.127 215.503 174.817 215.401 174.405 215.401C173.976 215.401 173.638 215.496 173.391 215.686C173.147 215.874 172.978 216.082 172.884 216.312L171.687 216.04C171.829 215.642 172.036 215.321 172.309 215.077C172.584 214.83 172.901 214.651 173.259 214.54C173.617 214.426 173.993 214.369 174.388 214.369C174.65 214.369 174.927 214.401 175.219 214.463C175.515 214.523 175.79 214.634 176.046 214.795C176.304 214.957 176.516 215.189 176.681 215.49C176.846 215.788 176.928 216.176 176.928 216.653V221H175.684V220.105H175.633C175.55 220.27 175.427 220.432 175.262 220.591C175.097 220.75 174.885 220.882 174.627 220.987C174.368 221.092 174.059 221.145 173.698 221.145ZM173.975 220.122C174.327 220.122 174.628 220.053 174.878 219.913C175.131 219.774 175.323 219.592 175.454 219.368C175.587 219.141 175.654 218.898 175.654 218.639V217.795C175.608 217.841 175.52 217.884 175.39 217.923C175.262 217.96 175.116 217.993 174.951 218.021C174.786 218.047 174.625 218.071 174.469 218.094C174.313 218.114 174.182 218.131 174.077 218.145C173.83 218.176 173.604 218.229 173.4 218.303C173.198 218.376 173.036 218.483 172.914 218.622C172.795 218.759 172.735 218.94 172.735 219.168C172.735 219.483 172.851 219.722 173.084 219.884C173.317 220.043 173.614 220.122 173.975 220.122ZM179.779 217.114V221H178.505V214.455H179.728V215.52H179.809C179.96 215.173 180.195 214.895 180.516 214.685C180.84 214.474 181.248 214.369 181.739 214.369C182.186 214.369 182.576 214.463 182.911 214.651C183.247 214.835 183.507 215.111 183.691 215.477C183.876 215.844 183.968 216.297 183.968 216.837V221H182.694V216.99C182.694 216.516 182.57 216.145 182.323 215.878C182.076 215.608 181.737 215.473 181.305 215.473C181.009 215.473 180.747 215.537 180.516 215.665C180.289 215.793 180.109 215.98 179.975 216.227C179.845 216.472 179.779 216.767 179.779 217.114ZM188.007 221.128C187.479 221.128 187.007 220.993 186.593 220.723C186.181 220.45 185.857 220.062 185.621 219.56C185.388 219.054 185.271 218.447 185.271 217.74C185.271 217.033 185.389 216.428 185.625 215.925C185.864 215.422 186.191 215.037 186.605 214.77C187.02 214.503 187.49 214.369 188.016 214.369C188.422 214.369 188.749 214.438 188.996 214.574C189.246 214.707 189.439 214.864 189.575 215.043C189.715 215.222 189.823 215.379 189.899 215.516H189.976V212.273H191.25V221H190.006V219.982H189.899C189.823 220.121 189.712 220.28 189.567 220.459C189.425 220.638 189.229 220.794 188.979 220.928C188.729 221.061 188.405 221.128 188.007 221.128ZM188.289 220.041C188.655 220.041 188.965 219.945 189.218 219.751C189.473 219.555 189.666 219.284 189.797 218.938C189.931 218.591 189.997 218.187 189.997 217.727C189.997 217.273 189.932 216.875 189.801 216.534C189.671 216.193 189.479 215.928 189.226 215.737C188.973 215.547 188.661 215.452 188.289 215.452C187.905 215.452 187.585 215.551 187.33 215.75C187.074 215.949 186.881 216.22 186.75 216.564C186.622 216.908 186.558 217.295 186.558 217.727C186.558 218.165 186.624 218.558 186.754 218.908C186.885 219.257 187.078 219.534 187.334 219.739C187.593 219.94 187.911 220.041 188.289 220.041ZM196.005 223.455V214.455H197.249V215.516H197.355C197.429 215.379 197.536 215.222 197.675 215.043C197.814 214.864 198.007 214.707 198.255 214.574C198.502 214.438 198.828 214.369 199.235 214.369C199.763 214.369 200.235 214.503 200.649 214.77C201.064 215.037 201.389 215.422 201.625 215.925C201.864 216.428 201.983 217.033 201.983 217.74C201.983 218.447 201.865 219.054 201.63 219.56C201.394 220.062 201.07 220.45 200.658 220.723C200.246 220.993 199.776 221.128 199.247 221.128C198.85 221.128 198.524 221.061 198.272 220.928C198.022 220.794 197.826 220.638 197.683 220.459C197.541 220.28 197.432 220.121 197.355 219.982H197.279V223.455H196.005ZM197.253 217.727C197.253 218.187 197.32 218.591 197.453 218.938C197.587 219.284 197.78 219.555 198.033 219.751C198.286 219.945 198.595 220.041 198.962 220.041C199.343 220.041 199.661 219.94 199.916 219.739C200.172 219.534 200.365 219.257 200.496 218.908C200.63 218.558 200.696 218.165 200.696 217.727C200.696 217.295 200.631 216.908 200.5 216.564C200.372 216.22 200.179 215.949 199.921 215.75C199.665 215.551 199.345 215.452 198.962 215.452C198.593 215.452 198.28 215.547 198.024 215.737C197.772 215.928 197.58 216.193 197.449 216.534C197.318 216.875 197.253 217.273 197.253 217.727ZM205.196 221.145C204.781 221.145 204.406 221.068 204.071 220.915C203.735 220.759 203.47 220.533 203.274 220.237C203.081 219.942 202.984 219.58 202.984 219.151C202.984 218.781 203.055 218.477 203.197 218.239C203.339 218 203.531 217.811 203.772 217.672C204.014 217.533 204.284 217.428 204.582 217.357C204.88 217.286 205.184 217.232 205.494 217.195C205.886 217.149 206.204 217.112 206.448 217.084C206.693 217.053 206.87 217.003 206.981 216.935C207.092 216.866 207.147 216.756 207.147 216.602V216.572C207.147 216.2 207.042 215.912 206.832 215.707C206.625 215.503 206.315 215.401 205.903 215.401C205.474 215.401 205.136 215.496 204.889 215.686C204.644 215.874 204.475 216.082 204.382 216.312L203.184 216.04C203.326 215.642 203.534 215.321 203.806 215.077C204.082 214.83 204.399 214.651 204.757 214.54C205.115 214.426 205.491 214.369 205.886 214.369C206.147 214.369 206.424 214.401 206.717 214.463C207.012 214.523 207.288 214.634 207.544 214.795C207.802 214.957 208.014 215.189 208.179 215.49C208.343 215.788 208.426 216.176 208.426 216.653V221H207.181V220.105H207.13C207.048 220.27 206.924 220.432 206.76 220.591C206.595 220.75 206.383 220.882 206.125 220.987C205.866 221.092 205.556 221.145 205.196 221.145ZM205.473 220.122C205.825 220.122 206.126 220.053 206.376 219.913C206.629 219.774 206.821 219.592 206.951 219.368C207.085 219.141 207.152 218.898 207.152 218.639V217.795C207.106 217.841 207.018 217.884 206.887 217.923C206.76 217.96 206.613 217.993 206.448 218.021C206.284 218.047 206.123 218.071 205.967 218.094C205.811 218.114 205.68 218.131 205.575 218.145C205.328 218.176 205.102 218.229 204.897 218.303C204.696 218.376 204.534 218.483 204.411 218.622C204.292 218.759 204.233 218.94 204.233 219.168C204.233 219.483 204.349 219.722 204.582 219.884C204.815 220.043 205.112 220.122 205.473 220.122ZM214.908 216.053L213.753 216.257C213.704 216.109 213.628 215.969 213.523 215.835C213.42 215.702 213.281 215.592 213.105 215.507C212.929 215.422 212.709 215.379 212.445 215.379C212.084 215.379 211.783 215.46 211.541 215.622C211.3 215.781 211.179 215.987 211.179 216.24C211.179 216.459 211.26 216.635 211.422 216.768C211.584 216.902 211.845 217.011 212.206 217.097L213.246 217.335C213.848 217.474 214.297 217.689 214.592 217.979C214.888 218.268 215.035 218.645 215.035 219.108C215.035 219.5 214.922 219.849 214.695 220.156C214.47 220.46 214.156 220.699 213.753 220.872C213.352 221.045 212.888 221.132 212.359 221.132C211.626 221.132 211.028 220.976 210.565 220.663C210.102 220.348 209.818 219.901 209.713 219.321L210.945 219.134C211.021 219.455 211.179 219.697 211.418 219.862C211.656 220.024 211.967 220.105 212.351 220.105C212.768 220.105 213.102 220.018 213.352 219.845C213.602 219.669 213.727 219.455 213.727 219.202C213.727 218.997 213.651 218.825 213.497 218.686C213.347 218.547 213.115 218.442 212.803 218.371L211.695 218.128C211.084 217.989 210.632 217.767 210.339 217.463C210.05 217.159 209.905 216.774 209.905 216.308C209.905 215.922 210.013 215.584 210.229 215.294C210.445 215.004 210.743 214.778 211.124 214.616C211.504 214.452 211.94 214.369 212.432 214.369C213.139 214.369 213.696 214.523 214.102 214.83C214.508 215.134 214.777 215.541 214.908 216.053ZM221.221 216.053L220.066 216.257C220.018 216.109 219.941 215.969 219.836 215.835C219.734 215.702 219.595 215.592 219.419 215.507C219.243 215.422 219.022 215.379 218.758 215.379C218.397 215.379 218.096 215.46 217.855 215.622C217.613 215.781 217.493 215.987 217.493 216.24C217.493 216.459 217.573 216.635 217.735 216.768C217.897 216.902 218.159 217.011 218.519 217.097L219.559 217.335C220.162 217.474 220.61 217.689 220.906 217.979C221.201 218.268 221.349 218.645 221.349 219.108C221.349 219.5 221.235 219.849 221.008 220.156C220.784 220.46 220.47 220.699 220.066 220.872C219.666 221.045 219.201 221.132 218.673 221.132C217.94 221.132 217.342 220.976 216.879 220.663C216.416 220.348 216.132 219.901 216.027 219.321L217.258 219.134C217.335 219.455 217.493 219.697 217.731 219.862C217.97 220.024 218.281 220.105 218.664 220.105C219.082 220.105 219.416 220.018 219.666 219.845C219.916 219.669 220.041 219.455 220.041 219.202C220.041 218.997 219.964 218.825 219.811 218.686C219.66 218.547 219.429 218.442 219.116 218.371L218.008 218.128C217.397 217.989 216.946 217.767 216.653 217.463C216.363 217.159 216.218 216.774 216.218 216.308C216.218 215.922 216.326 215.584 216.542 215.294C216.758 215.004 217.056 214.778 217.437 214.616C217.818 214.452 218.254 214.369 218.745 214.369C219.453 214.369 220.01 214.523 220.416 214.83C220.822 215.134 221.091 215.541 221.221 216.053ZM224.049 221L222.123 214.455H223.44L224.722 219.261H224.786L226.073 214.455H227.39L228.668 219.24H228.732L230.006 214.455H231.323L229.401 221H228.102L226.772 216.274H226.674L225.344 221H224.049ZM234.97 221.132C234.357 221.132 233.821 220.991 233.364 220.71C232.906 220.429 232.551 220.036 232.298 219.53C232.045 219.024 231.919 218.433 231.919 217.757C231.919 217.078 232.045 216.484 232.298 215.976C232.551 215.467 232.906 215.072 233.364 214.791C233.821 214.51 234.357 214.369 234.97 214.369C235.584 214.369 236.119 214.51 236.577 214.791C237.034 215.072 237.389 215.467 237.642 215.976C237.895 216.484 238.021 217.078 238.021 217.757C238.021 218.433 237.895 219.024 237.642 219.53C237.389 220.036 237.034 220.429 236.577 220.71C236.119 220.991 235.584 221.132 234.97 221.132ZM234.974 220.062C235.372 220.062 235.702 219.957 235.963 219.747C236.224 219.537 236.418 219.257 236.543 218.908C236.67 218.558 236.734 218.173 236.734 217.753C236.734 217.335 236.67 216.952 236.543 216.602C236.418 216.25 236.224 215.967 235.963 215.754C235.702 215.541 235.372 215.435 234.974 215.435C234.574 215.435 234.242 215.541 233.977 215.754C233.716 215.967 233.521 216.25 233.393 216.602C233.268 216.952 233.206 217.335 233.206 217.753C233.206 218.173 233.268 218.558 233.393 218.908C233.521 219.257 233.716 219.537 233.977 219.747C234.242 219.957 234.574 220.062 234.974 220.062ZM239.324 221V214.455H240.555V215.494H240.623C240.743 215.142 240.953 214.865 241.254 214.663C241.558 214.459 241.902 214.357 242.285 214.357C242.365 214.357 242.459 214.359 242.566 214.365C242.677 214.371 242.764 214.378 242.826 214.386V215.605C242.775 215.591 242.684 215.575 242.554 215.558C242.423 215.538 242.292 215.528 242.162 215.528C241.86 215.528 241.592 215.592 241.356 215.72C241.123 215.845 240.939 216.02 240.802 216.244C240.666 216.466 240.598 216.719 240.598 217.003V221H239.324ZM246.025 221.128C245.497 221.128 245.025 220.993 244.61 220.723C244.198 220.45 243.874 220.062 243.639 219.56C243.406 219.054 243.289 218.447 243.289 217.74C243.289 217.033 243.407 216.428 243.643 215.925C243.881 215.422 244.208 215.037 244.623 214.77C245.038 214.503 245.508 214.369 246.033 214.369C246.44 214.369 246.766 214.438 247.014 214.574C247.264 214.707 247.457 214.864 247.593 215.043C247.732 215.222 247.84 215.379 247.917 215.516H247.994V212.273H249.268V221H248.024V219.982H247.917C247.84 220.121 247.729 220.28 247.585 220.459C247.443 220.638 247.247 220.794 246.997 220.928C246.747 221.061 246.423 221.128 246.025 221.128ZM246.306 220.041C246.673 220.041 246.982 219.945 247.235 219.751C247.491 219.555 247.684 219.284 247.815 218.938C247.948 218.591 248.015 218.187 248.015 217.727C248.015 217.273 247.95 216.875 247.819 216.534C247.688 216.193 247.497 215.928 247.244 215.737C246.991 215.547 246.678 215.452 246.306 215.452C245.923 215.452 245.603 215.551 245.347 215.75C245.092 215.949 244.899 216.22 244.768 216.564C244.64 216.908 244.576 217.295 244.576 217.727C244.576 218.165 244.641 218.558 244.772 218.908C244.903 219.257 245.096 219.534 245.352 219.739C245.61 219.94 245.928 220.041 246.306 220.041ZM257.078 214.455V215.477H253.502V214.455H257.078ZM254.461 212.886H255.735V219.078C255.735 219.325 255.772 219.511 255.846 219.636C255.92 219.759 256.015 219.842 256.132 219.888C256.251 219.93 256.38 219.952 256.519 219.952C256.622 219.952 256.711 219.945 256.788 219.93C256.864 219.916 256.924 219.905 256.967 219.896L257.197 220.949C257.123 220.977 257.018 221.006 256.882 221.034C256.745 221.065 256.575 221.082 256.37 221.085C256.035 221.091 255.722 221.031 255.433 220.906C255.143 220.781 254.909 220.588 254.73 220.327C254.551 220.065 254.461 219.737 254.461 219.342V212.886ZM261.054 221.132C260.44 221.132 259.905 220.991 259.447 220.71C258.99 220.429 258.635 220.036 258.382 219.53C258.129 219.024 258.003 218.433 258.003 217.757C258.003 217.078 258.129 216.484 258.382 215.976C258.635 215.467 258.99 215.072 259.447 214.791C259.905 214.51 260.44 214.369 261.054 214.369C261.667 214.369 262.203 214.51 262.66 214.791C263.118 215.072 263.473 215.467 263.726 215.976C263.979 216.484 264.105 217.078 264.105 217.757C264.105 218.433 263.979 219.024 263.726 219.53C263.473 220.036 263.118 220.429 262.66 220.71C262.203 220.991 261.667 221.132 261.054 221.132ZM261.058 220.062C261.456 220.062 261.785 219.957 262.047 219.747C262.308 219.537 262.501 219.257 262.626 218.908C262.754 218.558 262.818 218.173 262.818 217.753C262.818 217.335 262.754 216.952 262.626 216.602C262.501 216.25 262.308 215.967 262.047 215.754C261.785 215.541 261.456 215.435 261.058 215.435C260.657 215.435 260.325 215.541 260.061 215.754C259.8 215.967 259.605 216.25 259.477 216.602C259.352 216.952 259.29 217.335 259.29 217.753C259.29 218.173 259.352 218.558 259.477 218.908C259.605 219.257 259.8 219.537 260.061 219.747C260.325 219.957 260.657 220.062 261.058 220.062ZM269.737 212.273V221H268.463V212.273H269.737ZM274.088 221.132C273.475 221.132 272.939 220.991 272.482 220.71C272.024 220.429 271.669 220.036 271.416 219.53C271.164 219.024 271.037 218.433 271.037 217.757C271.037 217.078 271.164 216.484 271.416 215.976C271.669 215.467 272.024 215.072 272.482 214.791C272.939 214.51 273.475 214.369 274.088 214.369C274.702 214.369 275.237 214.51 275.695 214.791C276.152 215.072 276.507 215.467 276.76 215.976C277.013 216.484 277.139 217.078 277.139 217.757C277.139 218.433 277.013 219.024 276.76 219.53C276.507 220.036 276.152 220.429 275.695 220.71C275.237 220.991 274.702 221.132 274.088 221.132ZM274.093 220.062C274.49 220.062 274.82 219.957 275.081 219.747C275.343 219.537 275.536 219.257 275.661 218.908C275.789 218.558 275.853 218.173 275.853 217.753C275.853 217.335 275.789 216.952 275.661 216.602C275.536 216.25 275.343 215.967 275.081 215.754C274.82 215.541 274.49 215.435 274.093 215.435C273.692 215.435 273.36 215.541 273.095 215.754C272.834 215.967 272.639 216.25 272.512 216.602C272.387 216.952 272.324 217.335 272.324 217.753C272.324 218.173 272.387 218.558 272.512 218.908C272.639 219.257 272.834 219.537 273.095 219.747C273.36 219.957 273.692 220.062 274.093 220.062ZM281.186 223.591C280.666 223.591 280.219 223.523 279.844 223.386C279.472 223.25 279.168 223.07 278.932 222.845C278.696 222.621 278.52 222.375 278.403 222.108L279.499 221.656C279.575 221.781 279.677 221.913 279.805 222.053C279.936 222.195 280.112 222.315 280.334 222.415C280.558 222.514 280.847 222.564 281.199 222.564C281.682 222.564 282.081 222.446 282.396 222.21C282.712 221.977 282.869 221.605 282.869 221.094V219.807H282.788C282.712 219.946 282.601 220.101 282.456 220.271C282.314 220.442 282.118 220.589 281.868 220.714C281.618 220.839 281.293 220.902 280.892 220.902C280.375 220.902 279.909 220.781 279.494 220.54C279.082 220.295 278.756 219.936 278.514 219.462C278.276 218.984 278.156 218.398 278.156 217.702C278.156 217.006 278.274 216.409 278.51 215.912C278.749 215.415 279.075 215.034 279.49 214.77C279.905 214.503 280.375 214.369 280.901 214.369C281.307 214.369 281.635 214.438 281.885 214.574C282.135 214.707 282.329 214.864 282.469 215.043C282.611 215.222 282.72 215.379 282.797 215.516H282.891V214.455H284.139V221.145C284.139 221.707 284.008 222.169 283.747 222.53C283.486 222.891 283.132 223.158 282.686 223.331C282.243 223.504 281.743 223.591 281.186 223.591ZM281.173 219.845C281.54 219.845 281.849 219.76 282.102 219.589C282.358 219.416 282.551 219.169 282.682 218.848C282.815 218.524 282.882 218.136 282.882 217.685C282.882 217.244 282.817 216.857 282.686 216.521C282.555 216.186 282.364 215.925 282.111 215.737C281.858 215.547 281.545 215.452 281.173 215.452C280.79 215.452 280.47 215.551 280.214 215.75C279.959 215.946 279.766 216.213 279.635 216.551C279.507 216.889 279.443 217.267 279.443 217.685C279.443 218.114 279.508 218.49 279.639 218.814C279.77 219.138 279.963 219.391 280.219 219.572C280.477 219.754 280.795 219.845 281.173 219.845ZM288.784 221V214.455H290.058V221H288.784ZM289.427 213.445C289.206 213.445 289.015 213.371 288.856 213.223C288.7 213.072 288.622 212.893 288.622 212.686C288.622 212.476 288.7 212.297 288.856 212.149C289.015 211.999 289.206 211.923 289.427 211.923C289.649 211.923 289.838 211.999 289.994 212.149C290.153 212.297 290.233 212.476 290.233 212.686C290.233 212.893 290.153 213.072 289.994 213.223C289.838 213.371 289.649 213.445 289.427 213.445ZM292.926 217.114V221H291.652V214.455H292.875V215.52H292.956C293.107 215.173 293.342 214.895 293.663 214.685C293.987 214.474 294.395 214.369 294.886 214.369C295.332 214.369 295.723 214.463 296.058 214.651C296.393 214.835 296.653 215.111 296.838 215.477C297.023 215.844 297.115 216.297 297.115 216.837V221H295.841V216.99C295.841 216.516 295.717 216.145 295.47 215.878C295.223 215.608 294.884 215.473 294.452 215.473C294.156 215.473 293.893 215.537 293.663 215.665C293.436 215.793 293.256 215.98 293.122 216.227C292.991 216.472 292.926 216.767 292.926 217.114Z" fill="#EEEEEE"/>
</g>
<defs>
<clipPath id="paint0_diamond_23_2415_clip_path"><rect x="-321" y="-162" width="1040" height="692"/></clipPath><linearGradient id="paint0_diamond_23_2415" x1="0" y1="0" x2="500" y2="500" gradientUnits="userSpaceOnUse">
<stop stop-color="white"/>
<stop offset="1" stop-color="#D9D9D9" stop-opacity="0"/>
</linearGradient>
<clipPath id="clip0_23_2415">
<rect width="375" height="397" fill="white"/>
</clipPath>
<clipPath id="clip1_23_2415">
<rect width="376" height="394" fill="white" transform="translate(-1 -7)"/>
</clipPath>
<clipPath id="clip2_23_2415">
<rect width="1248.18" height="806.841" fill="white" transform="translate(-315.184 -84.1694)"/>
</clipPath>
<clipPath id="clip3_23_2415">
<rect width="1248.18" height="806.841" fill="white" transform="translate(-315.184 -84.1694)"/>
</clipPath>
</defs>
</svg>
